<?xml version="1.0" encoding="utf-8"?>
<!-- Generator: Adobe Illustrator 23.0.5, SVG Export Plug-In . SVG Version: 6.00 Build 0)  -->
<svg version="1.1" id="Calque_1" xmlns="http://www.w3.org/2000/svg" xmlns:xlink="http://www.w3.org/1999/xlink" x="0px" y="0px"
	 viewBox="0 0 142 32" style="enable-background:new 0 0 142 32;" xml:space="preserve">
<style type="text/css">
	.st0{display:none;fill:#FFFFFF;}
	.st1{display:none;}
	.st2{display:inline;}
	.st3{display:inline;clip-path:url(#XMLID_2_);}
	.st4{fill:url(#SVGID_1_);}
	.st5{fill:url(#SVGID_2_);}
	.st6{fill:url(#SVGID_3_);}
	.st7{fill:#FFFFFF;}
	.st8{fill:url(#SVGID_4_);}
	.st9{fill:url(#SVGID_5_);}
	.st10{fill:url(#SVGID_6_);}
	.st11{fill:url(#SVGID_7_);}
	.st12{fill:url(#SVGID_8_);}
	.st13{fill:url(#SVGID_9_);}
	.st14{fill:url(#SVGID_10_);}
	.st15{fill:url(#SVGID_11_);}
	.st16{fill:url(#SVGID_12_);}
</style>
<g>
	<rect id="XMLID_597_" x="-53.78" y="-19.53" class="st0" width="184.98" height="106.13"/>
	<g class="st1">
		<defs>
			<rect id="XMLID_613_" x="-53.78" y="-19.53" width="184.98" height="106.13"/>
		</defs>
		<clipPath id="XMLID_2_" class="st2">
			<use xlink:href="#XMLID_613_"  style="overflow:visible;"/>
		</clipPath>
		<g class="st3">
			<linearGradient id="SVGID_1_" gradientUnits="userSpaceOnUse" x1="0.69" y1="5.9146" x2="-94.5704" y2="101.1751">
				<stop  offset="0" style="stop-color:#5CC6F2"/>
				<stop  offset="0.0757" style="stop-color:#55BEEE"/>
				<stop  offset="0.7111" style="stop-color:#1F84C7"/>
				<stop  offset="1" style="stop-color:#0E6EB6"/>
			</linearGradient>
			<path class="st4" d="M-37-45.99c0,0-36.94,112.39,133.33,141.01h-223.19V-51.28L-37-45.99z"/>
			<linearGradient id="SVGID_2_" gradientUnits="userSpaceOnUse" x1="-80.6494" y1="79.7101" x2="18.7455" y2="-19.6848">
				<stop  offset="0" style="stop-color:#FFFFFF"/>
				<stop  offset="0.4296" style="stop-color:#A5B8E0"/>
				<stop  offset="0.8227" style="stop-color:#4981C2"/>
				<stop  offset="1" style="stop-color:#0E6EB6"/>
			</linearGradient>
			<path class="st5" d="M-49.02-45.99c0,0-30.54,116.07,142.28,141.01h-232.14V-51.28L-49.02-45.99z"/>
			<linearGradient id="SVGID_3_" gradientUnits="userSpaceOnUse" x1="-80.6493" y1="92.7151" x2="18.7456" y2="-6.6798">
				<stop  offset="0" style="stop-color:#5CC6F2"/>
				<stop  offset="0.0757" style="stop-color:#55BEEE"/>
				<stop  offset="0.7111" style="stop-color:#1F84C7"/>
				<stop  offset="1" style="stop-color:#0E6EB6"/>
			</linearGradient>
			<path class="st6" d="M-49.02-32.98c0,0-30.54,116.07,142.28,141.01h-232.14V-38.27L-49.02-32.98z"/>
			<path class="st7" d="M-56.16-34.33c0,0-30.54,116.07,142.28,141.01h-232.14V-39.61L-56.16-34.33z"/>
			
				<linearGradient id="SVGID_4_" gradientUnits="userSpaceOnUse" x1="25.233" y1="44.3304" x2="-13.038" y2="82.6014" gradientTransform="matrix(1 0 0.1408 1 -80.7431 1.000000e-04)">
				<stop  offset="0" style="stop-color:#5CC6F2"/>
				<stop  offset="0.0757" style="stop-color:#55BEEE"/>
				<stop  offset="0.7111" style="stop-color:#1F84C7"/>
				<stop  offset="1" style="stop-color:#0E6EB6"/>
			</linearGradient>
			<path class="st8" d="M-75.76-34.33c0,0-14.19,116.07,162.14,141.01h-232.14l-20.6-146.29L-75.76-34.33z"/>
		</g>
	</g>
	<g>
		<linearGradient id="SVGID_5_" gradientUnits="userSpaceOnUse" x1="51.0469" y1="-1.3264" x2="51.0469" y2="56.6474">
			<stop  offset="0" style="stop-color:#5CC6F2"/>
			<stop  offset="0.0757" style="stop-color:#55BEEE"/>
			<stop  offset="0.7111" style="stop-color:#1F84C7"/>
			<stop  offset="1" style="stop-color:#0E6EB6"/>
		</linearGradient>
		<path class="st9" d="M66.42,15.53l-1.82-5.81l-2.77,5.76c-0.28,0.58-0.88,0.94-1.54,0.88c-0.64-0.06-1.16-0.53-1.37-1.14
			l-0.8-2.38l-2.52,7.18c-0.22,0.62-0.81,1.04-1.47,1.04h-0.01c-0.66,0-1.25-0.42-1.46-1.05L49.25,9.89l-2.46,5.99
			c-0.24,0.58-0.81,0.96-1.44,0.96h-4.03H31.04l10.93,1.53c0.65,0.09,1.26,0.39,1.72,0.86l11.32,11.31c0.88,0.88,2.3,0.88,3.18,0
			l12.63-12.64c0.47-0.47,0.14-1.28-0.53-1.28h-2.4C67.22,16.61,66.62,16.18,66.42,15.53z"/>
		<linearGradient id="SVGID_6_" gradientUnits="userSpaceOnUse" x1="51.0469" y1="-1.3264" x2="51.0469" y2="56.6474">
			<stop  offset="0" style="stop-color:#5CC6F2"/>
			<stop  offset="0.0757" style="stop-color:#55BEEE"/>
			<stop  offset="0.7111" style="stop-color:#1F84C7"/>
			<stop  offset="1" style="stop-color:#0E6EB6"/>
		</linearGradient>
		<path class="st10" d="M66.42,15.53l-1.82-5.81l-2.77,5.76c-0.28,0.58-0.88,0.94-1.54,0.88c-0.64-0.06-1.16-0.53-1.37-1.14
			l-0.8-2.38l-2.52,7.18c-0.22,0.62-0.81,1.04-1.47,1.04h-0.01c-0.66,0-1.25-0.42-1.46-1.05L49.25,9.89l-2.46,5.99
			c-0.24,0.58-0.81,0.96-1.44,0.96h-4.03H31.04l10.93,1.53c0.65,0.09,1.26,0.39,1.72,0.86l11.32,11.31c0.88,0.88,2.3,0.88,3.18,0
			l12.63-12.64c0.47-0.47,0.14-1.28-0.53-1.28h-2.4C67.22,16.61,66.62,16.18,66.42,15.53z"/>
		<linearGradient id="SVGID_7_" gradientUnits="userSpaceOnUse" x1="61.0156" y1="-0.7617" x2="61.0156" y2="59.7291">
			<stop  offset="0" style="stop-color:#5CC6F2"/>
			<stop  offset="0.0757" style="stop-color:#55BEEE"/>
			<stop  offset="0.7111" style="stop-color:#1F84C7"/>
			<stop  offset="1" style="stop-color:#0E6EB6"/>
		</linearGradient>
		<path class="st11" d="M74.53,13.16c0.26-1.13,0.32-2.33,0.13-3.58c-0.66-4.3-4.21-7.69-8.54-8.12c-4.12-0.4-7.77,1.8-9.51,5.15
			c-1.6-3.08-4.82-5.2-8.53-5.2c-5.09,0-9.39,4.1-9.62,9.19c-0.07,1.58,0.25,3.08,0.86,4.41c0.12,0.26,0.39,0.42,0.68,0.42h4.77
			L47.9,7.8c0.25-0.61,0.82-0.98,1.49-0.96c0.65,0.02,1.21,0.44,1.42,1.06l3.34,9.91l2.52-7.18c0.22-0.62,0.81-1.04,1.47-1.04
			l0.01,0c0.68,0.04,1.27,0.49,1.49,1.14l0.93,2.77l2.77-5.77c0.24-0.5,0.71-0.87,1.26-0.93c0.76-0.08,1.44,0.38,1.66,1.08l2.3,7.33
			h5.26h9.78l-8.48-1.2C74.71,13.96,74.44,13.56,74.53,13.16z"/>
	</g>
	<g class="st1">
		
			<text transform="matrix(1 0 0 1 -6.347656e-03 47.832)" style="display:inline;fill:#1D3157; font-family:'Raleway-ExtraBold'; font-size:9.8042px;">MEDICAL HEART</text>
	</g>
	<text transform="matrix(1 0 0 1 13.0845 54.2422)" class="st1" style="font-family:'Raleway-Medium'; font-size:5.1659px;">TAGLINE GOES HERE</text>
</g>
<g>
	<linearGradient id="SVGID_8_" gradientUnits="userSpaceOnUse" x1="72.572" y1="21.8791" x2="83.3706" y2="21.8791">
		<stop  offset="0" style="stop-color:#5CC6F2"/>
		<stop  offset="0.0757" style="stop-color:#55BEEE"/>
		<stop  offset="0.7111" style="stop-color:#1F84C7"/>
		<stop  offset="1" style="stop-color:#0E6EB6"/>
	</linearGradient>
	<path class="st12" d="M80.04,26.35v-0.53h0.04c0.13,0,0.26-0.01,0.36-0.03s0.2-0.06,0.28-0.11c0.08-0.06,0.14-0.13,0.18-0.24
		s0.07-0.24,0.08-0.41v-6.69l-2.87,8.01h-0.68l-2.91-7.98v6.56c0,0.2,0.02,0.35,0.06,0.47s0.1,0.21,0.18,0.27s0.18,0.11,0.29,0.13
		c0.11,0.02,0.24,0.03,0.38,0.03h0.04v0.53h-2.89v-0.53h0.16c0.14,0,0.27-0.01,0.39-0.03c0.12-0.02,0.23-0.06,0.33-0.11
		c0.09-0.06,0.17-0.14,0.22-0.25c0.06-0.11,0.08-0.26,0.08-0.44v-6.2c0-0.18-0.03-0.33-0.08-0.44c-0.06-0.11-0.13-0.2-0.22-0.26
		s-0.2-0.1-0.33-0.12c-0.12-0.02-0.26-0.03-0.39-0.03h-0.16v-0.53h2.86l2.59,7.16l2.57-7.16h2.78v0.53h-0.16
		c-0.14,0-0.28,0.01-0.4,0.03c-0.12,0.02-0.23,0.06-0.33,0.13s-0.17,0.15-0.22,0.27c-0.05,0.12-0.08,0.28-0.08,0.47v6.09
		c0,0.2,0.03,0.35,0.08,0.47s0.13,0.21,0.22,0.27s0.2,0.11,0.33,0.13c0.12,0.02,0.26,0.03,0.4,0.03h0.16v0.53H80.04z"/>
	<linearGradient id="SVGID_9_" gradientUnits="userSpaceOnUse" x1="83.8968" y1="24.4977" x2="90.9271" y2="24.4977">
		<stop  offset="0" style="stop-color:#5CC6F2"/>
		<stop  offset="0.0757" style="stop-color:#55BEEE"/>
		<stop  offset="0.7111" style="stop-color:#1F84C7"/>
		<stop  offset="1" style="stop-color:#0E6EB6"/>
	</linearGradient>
	<path class="st13" d="M90.93,19.63v0.53h-0.04c-0.12,0-0.23,0.01-0.32,0.04s-0.17,0.08-0.24,0.15s-0.14,0.17-0.2,0.3
		c-0.06,0.13-0.13,0.29-0.2,0.49l-1.9,5.26c-0.15,0.4-0.29,0.76-0.42,1.06c-0.13,0.31-0.27,0.57-0.41,0.79
		c-0.14,0.22-0.3,0.4-0.47,0.54c-0.17,0.14-0.36,0.26-0.58,0.34c-0.22,0.09-0.46,0.14-0.75,0.18c-0.28,0.03-0.61,0.05-0.98,0.05
		h-0.11v-0.59c0.42,0,0.79-0.06,1.1-0.19c0.31-0.13,0.57-0.3,0.79-0.52c0.22-0.22,0.41-0.48,0.56-0.78c0.15-0.3,0.27-0.63,0.38-0.98
		l-2.32-5.48c-0.06-0.13-0.11-0.24-0.17-0.32c-0.05-0.08-0.11-0.15-0.18-0.2c-0.07-0.05-0.14-0.09-0.23-0.11
		c-0.09-0.02-0.19-0.03-0.32-0.03H83.9v-0.53h3.01v0.53h-0.04c-0.25,0-0.44,0.05-0.57,0.15c-0.12,0.1-0.19,0.25-0.19,0.46
		c0,0.07,0.01,0.14,0.02,0.21c0.01,0.07,0.04,0.15,0.08,0.25l0.92,2.23c0.06,0.14,0.12,0.3,0.18,0.47c0.06,0.17,0.12,0.34,0.18,0.5
		c0.06,0.17,0.11,0.32,0.15,0.47c0.04,0.15,0.08,0.27,0.09,0.38h0.04c0.04-0.18,0.11-0.41,0.19-0.67c0.08-0.26,0.17-0.55,0.28-0.85
		l0.84-2.44c0.04-0.1,0.06-0.2,0.08-0.29c0.02-0.09,0.03-0.18,0.03-0.24c0-0.22-0.07-0.37-0.2-0.47c-0.14-0.1-0.34-0.15-0.62-0.15
		h-0.04v-0.53H90.93z"/>
	<linearGradient id="SVGID_10_" gradientUnits="userSpaceOnUse" x1="94.6592" y1="21.8791" x2="102.5761" y2="21.8791">
		<stop  offset="0" style="stop-color:#5CC6F2"/>
		<stop  offset="0.0757" style="stop-color:#55BEEE"/>
		<stop  offset="0.7111" style="stop-color:#1F84C7"/>
		<stop  offset="1" style="stop-color:#0E6EB6"/>
	</linearGradient>
	<path class="st14" d="M102.58,21.87c0,0.69-0.09,1.3-0.26,1.86s-0.43,1.02-0.76,1.41s-0.76,0.69-1.27,0.9
		c-0.51,0.21-1.11,0.32-1.79,0.32h-3.84v-0.53h0.16c0.14,0,0.28-0.01,0.4-0.03c0.12-0.02,0.23-0.06,0.33-0.13
		c0.09-0.06,0.17-0.15,0.22-0.27s0.08-0.28,0.08-0.47v-6.14c0-0.18-0.03-0.33-0.08-0.44c-0.06-0.11-0.13-0.2-0.22-0.26
		c-0.09-0.06-0.2-0.1-0.33-0.12c-0.12-0.02-0.26-0.03-0.39-0.03h-0.16v-0.53h3.84c0.64,0,1.22,0.1,1.73,0.3s0.93,0.49,1.28,0.87
		c0.35,0.38,0.61,0.85,0.8,1.4C102.48,20.52,102.58,21.16,102.58,21.87z M98.2,25.72c0.5,0,0.93-0.08,1.31-0.25
		c0.37-0.17,0.68-0.42,0.93-0.74c0.25-0.33,0.44-0.73,0.56-1.21s0.19-1.03,0.19-1.65c0-1.24-0.25-2.19-0.74-2.85
		s-1.24-0.99-2.23-0.99h-1.1v7.68H98.2z"/>
	<linearGradient id="SVGID_11_" gradientUnits="userSpaceOnUse" x1="103.9833" y1="22.9926" x2="109.8323" y2="22.9926">
		<stop  offset="0" style="stop-color:#5CC6F2"/>
		<stop  offset="0.0757" style="stop-color:#55BEEE"/>
		<stop  offset="0.7111" style="stop-color:#1F84C7"/>
		<stop  offset="1" style="stop-color:#0E6EB6"/>
	</linearGradient>
	<path class="st15" d="M109.83,22.98c0,1.18-0.25,2.06-0.75,2.63s-1.23,0.86-2.19,0.86c-0.45,0-0.86-0.07-1.22-0.21
		s-0.66-0.36-0.91-0.65c-0.25-0.29-0.44-0.65-0.58-1.09c-0.13-0.44-0.2-0.95-0.2-1.54c0-1.17,0.25-2.04,0.74-2.61
		c0.5-0.57,1.23-0.86,2.2-0.86c0.45,0,0.86,0.07,1.22,0.21s0.66,0.35,0.91,0.64c0.25,0.29,0.44,0.65,0.58,1.08
		S109.83,22.39,109.83,22.98z M105.19,22.98c0,0.46,0.03,0.87,0.09,1.23c0.06,0.35,0.16,0.65,0.3,0.89
		c0.14,0.24,0.31,0.42,0.53,0.54c0.22,0.12,0.48,0.18,0.8,0.18c0.31,0,0.58-0.06,0.8-0.18c0.22-0.12,0.39-0.3,0.53-0.54
		c0.13-0.24,0.23-0.54,0.29-0.89s0.09-0.76,0.09-1.23s-0.03-0.87-0.09-1.22c-0.06-0.35-0.16-0.64-0.29-0.88s-0.31-0.41-0.53-0.53
		c-0.22-0.12-0.48-0.18-0.8-0.18c-0.31,0-0.58,0.06-0.8,0.18c-0.22,0.12-0.39,0.29-0.53,0.53c-0.13,0.23-0.23,0.53-0.29,0.88
		C105.23,22.11,105.19,22.52,105.19,22.98z"/>
	<linearGradient id="SVGID_12_" gradientUnits="userSpaceOnUse" x1="111.215" y1="22.9926" x2="116.2013" y2="22.9926">
		<stop  offset="0" style="stop-color:#5CC6F2"/>
		<stop  offset="0.0757" style="stop-color:#55BEEE"/>
		<stop  offset="0.7111" style="stop-color:#1F84C7"/>
		<stop  offset="1" style="stop-color:#0E6EB6"/>
	</linearGradient>
	<path class="st16" d="M114.07,26.47c-0.42,0-0.8-0.06-1.15-0.19c-0.35-0.13-0.65-0.33-0.91-0.61c-0.25-0.28-0.45-0.63-0.59-1.07
		s-0.21-0.96-0.21-1.58c0-0.67,0.07-1.23,0.21-1.68s0.34-0.81,0.59-1.09c0.25-0.27,0.55-0.47,0.89-0.58
		c0.34-0.11,0.71-0.17,1.1-0.17c0.26,0,0.52,0.03,0.78,0.08s0.49,0.13,0.7,0.24c0.21,0.11,0.38,0.24,0.51,0.4
		c0.13,0.16,0.2,0.35,0.2,0.57c0,0.29-0.09,0.49-0.28,0.61c-0.19,0.12-0.47,0.18-0.84,0.18c0-0.2-0.02-0.38-0.05-0.56
		s-0.09-0.33-0.17-0.46s-0.19-0.24-0.32-0.31c-0.14-0.08-0.31-0.11-0.52-0.11c-0.24,0-0.46,0.04-0.65,0.13
		c-0.19,0.09-0.36,0.24-0.5,0.46c-0.14,0.22-0.24,0.52-0.32,0.89s-0.11,0.84-0.11,1.39c0,0.89,0.15,1.55,0.44,1.99
		c0.3,0.44,0.78,0.65,1.45,0.65c0.39,0,0.73-0.08,1.02-0.24c0.29-0.16,0.51-0.37,0.65-0.63c0.06,0.05,0.11,0.11,0.15,0.2
		s0.06,0.18,0.06,0.29c0,0.14-0.04,0.29-0.13,0.43c-0.09,0.14-0.22,0.27-0.4,0.39c-0.18,0.11-0.4,0.21-0.66,0.28
		C114.74,26.44,114.43,26.47,114.07,26.47z"/>
</g>
</svg>
