<?xml version="1.0" standalone="no"?>
<!DOCTYPE svg PUBLIC "-//W3C//DTD SVG 20010904//EN"
 "http://www.w3.org/TR/2001/REC-SVG-20010904/DTD/svg10.dtd">
<svg version="1.0" xmlns="http://www.w3.org/2000/svg"
 width="284.000000pt" height="64.000000pt" viewBox="0 0 284.000000 64.000000"
 preserveAspectRatio="xMidYMid meet">

<g transform="translate(0.000000,64.000000) scale(0.100000,-0.100000)"
fill="#000000" stroke="none">
<path d="M955 367 l-30 -62 -115 -5 -115 -5 70 -9 c39 -4 79 -12 90 -18 11 -5
72 -63 135 -129 87 -90 121 -119 140 -119 19 0 58 33 159 134 77 77 131 138
127 145 -4 6 -22 11 -40 11 -41 0 -51 11 -66 73 -7 25 -16 44 -21 42 -4 -3
-19 -30 -33 -60 -30 -66 -59 -74 -80 -24 -15 36 -17 34 -41 -41 -22 -67 -32
-82 -58 -78 -16 2 -27 24 -53 102 -19 54 -35 100 -37 102 -2 2 -16 -25 -32
-59z"/>
<path d="M1596 243 c-21 -61 -19 -68 4 -18 l19 40 0 -72 c1 -51 5 -73 14 -73
9 0 11 19 9 70 -2 45 1 76 8 85 10 13 8 15 -13 15 -21 0 -28 -8 -41 -47z"/>
<path d="M1993 278 c41 -32 43 -116 3 -143 -17 -13 -18 -15 -3 -15 56 0 78
100 32 145 -13 14 -30 25 -36 25 -8 0 -7 -5 4 -12z"/>
<path d="M2292 230 c15 -23 28 -26 28 -6 0 8 -7 17 -16 20 -24 9 -25 8 -12
-14z"/>
<path d="M1782 234 c4 -3 -1 -26 -9 -50 -22 -64 -12 -62 13 2 18 46 19 54 6
54 -8 0 -13 -3 -10 -6z"/>
<path d="M2165 180 c0 -36 4 -59 10 -57 6 2 10 28 10 57 0 29 -4 55 -10 57 -6
2 -10 -21 -10 -57z"/>
<path d="M2294 125 c-10 -8 -14 -14 -9 -15 15 0 40 18 34 24 -3 3 -14 -1 -25
-9z"/>
</g>
</svg>
