<?xml version="1.0" encoding="utf-8"?>
<!-- Generator: Adobe Illustrator 23.0.5, SVG Export Plug-In . SVG Version: 6.00 Build 0)  -->
<svg version="1.1" id="Calque_1" xmlns="http://www.w3.org/2000/svg" xmlns:xlink="http://www.w3.org/1999/xlink" x="0px" y="0px"
	 viewBox="0 0 149 38" style="enable-background:new 0 0 149 38;" xml:space="preserve">
<style type="text/css">
	.st0{fill:#E72179;}
	.st1{fill:#21B2E0;}
	.st2{font-family:'ErasITC-Bold';}
	.st3{font-size:13.541px;}
</style>
<path class="st0" d="M38.81,13.3c0.89,1.68,2.19,3.17,3.62,4.5c0.39,0.37,0.99,0.87,1.62,1.38c0,0-0.01,0-0.01,0
	c1.27,1.04,2.66,2.11,2.67,2.1c0,0,0,0,0,0c0.01,0.01,0.02,0.01,0.02,0.01c0.01,0.01,3.19-2.25,4.43-3.32
	c1.48-1.28,2.84-2.71,3.8-4.35c1.78-3.06,0.08-7.71-3.97-8.13c-1.54-0.16-3.49,0.64-3.98,1.96c-0.43-1.34-2.78-2.21-4.32-2.12
	C38.62,5.6,37.15,10.17,38.81,13.3z M43.16,12.56c0-0.1,0.08-0.18,0.18-0.18c0.29,0,0.59,0,0.88,0c0.59,0,1.17,0,1.76,0.01
	c0-0.08,0-0.15,0-0.23c0-0.8,0.01-1.61,0.01-2.41c0-0.1,0.08-0.18,0.18-0.18c0.5,0,1,0,1.5,0.01c0.1,0,0.18,0.08,0.18,0.18
	c0,0.29,0,0.59,0,0.88c0,0.59,0,1.17-0.01,1.76c0.08,0,0.15,0,0.23,0c0.8,0,1.61,0.01,2.41,0.01c0.1,0,0.18,0.08,0.18,0.18
	c0,0.5,0,1-0.01,1.5c0,0.1-0.08,0.18-0.18,0.18c-0.29,0-0.59,0-0.88,0c-0.59,0-1.17,0-1.76-0.01c0,0.08,0,0.15,0,0.23
	c0,0.8-0.01,1.61-0.01,2.41c0,0.06-0.02,0.1-0.05,0.13c-0.03,0.03-0.07,0.05-0.13,0.05c-0.5,0-1,0-1.5-0.01
	c-0.1,0-0.18-0.08-0.18-0.18c0-0.29,0-0.59,0-0.88c0-0.59,0-1.17,0.01-1.76c-0.08,0-0.15,0-0.23,0c-0.8,0-1.61-0.01-2.41-0.01
	c-0.06,0-0.1-0.02-0.13-0.05c-0.03-0.03-0.05-0.07-0.05-0.13C43.15,13.56,43.16,13.06,43.16,12.56z"/>
<path class="st1" d="M69.7,2.28c-2.42-0.12-4.48,1.74-4.6,4.15c-0.11,2.22,1.45,4.13,3.57,4.53l-0.47,9.18
	c-0.29,0.11-0.51,0.33-0.52,0.66c-0.01,0.53-0.07,1.05-0.13,1.58c-0.06,0.57-0.15,1.14-0.25,1.71c-0.03,0.16-0.06,0.33-0.09,0.49
	c0,0.02-0.01,0.03-0.01,0.04c0,0.01,0,0.01,0,0.02c-0.02,0.1-0.04,0.19-0.06,0.29c-0.08,0.36-0.16,0.72-0.26,1.08
	c-0.41,1.56-0.97,3.11-1.77,4.57c-0.04,0.07-0.08,0.15-0.12,0.22c0.02-0.03-0.07,0.13-0.1,0.17c-0.12,0.19-0.24,0.38-0.36,0.57
	c-0.24,0.35-0.5,0.7-0.78,1.03c-0.13,0.16-0.27,0.31-0.41,0.46c-0.07,0.07-0.13,0.14-0.2,0.21c-0.05,0.05-0.09,0.09-0.14,0.14
	c-0.01,0.01-0.05,0.04-0.07,0.07c-0.3,0.27-0.62,0.54-0.96,0.78c-0.17,0.12-0.35,0.24-0.53,0.35c-0.09,0.05-0.17,0.1-0.26,0.15
	c0.23-0.14-0.14,0.07-0.2,0.1c-0.41,0.21-0.84,0.38-1.28,0.53c-0.05,0.01-0.09,0.03-0.14,0.04c-0.01,0-0.01,0-0.02,0.01
	c0,0,0,0-0.01,0c-0.11,0.03-0.21,0.06-0.32,0.08c-0.25,0.06-0.51,0.11-0.77,0.16c-0.24,0.04-0.49,0.07-0.73,0.09
	c-0.02,0-0.04,0-0.06,0.01c0.02,0,0.04,0,0.07,0c-0.04,0-0.07,0-0.11,0.01c-0.01,0-0.02,0-0.02,0c-0.01,0-0.02,0-0.03,0
	c-0.16,0.01-0.33,0.01-0.49,0.02c-0.58,0.01-1.15-0.03-1.72-0.09c0,0-0.01,0-0.01,0c-0.05-0.01-0.11-0.01-0.16-0.02
	c-0.12-0.02-0.24-0.04-0.36-0.06c-0.28-0.05-0.56-0.11-0.84-0.19c-0.22-0.06-0.43-0.13-0.65-0.19c0,0-0.01,0-0.01,0
	c0,0-0.01,0-0.01-0.01c-0.04-0.02-0.09-0.03-0.14-0.05c-0.13-0.05-0.27-0.11-0.4-0.16c-0.19-0.08-0.38-0.17-0.57-0.27
	c-0.1-0.05-0.2-0.11-0.3-0.16c-0.05-0.03-0.33-0.2-0.26-0.15c-0.35-0.23-0.68-0.47-0.99-0.74c-0.15-0.13-0.29-0.26-0.43-0.39
	c-0.04-0.04-0.23-0.23-0.15-0.15c-0.07-0.08-0.14-0.16-0.21-0.23c-0.57-0.65-1.02-1.34-1.41-2.06c-0.01-0.02-0.02-0.03-0.02-0.05
	c-0.01-0.02-0.02-0.05-0.03-0.06c-0.04-0.08-0.08-0.17-0.12-0.25c-0.09-0.2-0.18-0.39-0.26-0.59c-0.16-0.38-0.3-0.76-0.43-1.15
	c-0.03-0.09-0.05-0.18-0.08-0.26c1.88-0.13,3.7-0.87,5.21-2.01c4.55-3.44,6.46-9.48,6.48-14.99c0.01-3.07,0-6.14,0-9.21
	c0-0.72-0.53-1.09-1.09-1.11c-0.02,0-0.04-0.01-0.06-0.01c-0.73,0-1.45,0-2.18-0.01l0-0.57l-2.94-0.01c-0.29,0-0.53,0.24-0.53,0.53
	l0,1.09c0,0.29,0.24,0.53,0.53,0.53l2.94,0.01l0-0.5c0.34,0,0.68,0,1.02,0c0,0.02,0,0.03,0,0.05c0,2.8,0,5.61,0,8.41
	c0,4.43-0.91,9.08-3.96,12.48c-1.39,1.55-3.23,2.81-5.34,3.01c-2.08,0.2-4.09-0.6-5.64-1.96c-3.62-3.16-5.02-8.23-5.02-12.88
	c0-3.02,0-6.04,0-9.06c0-0.02,0-0.03,0-0.05c0.3,0,0.61,0,0.91,0l0,0.5l2.94-0.01c0.29,0,0.53-0.24,0.53-0.53l0-1.09
	c0-0.29-0.24-0.53-0.53-0.53l-2.94,0.01l0,0.57c-0.73,0-1.45,0-2.18,0.01c-0.05,0-0.1,0.01-0.14,0.03c-0.48,0.09-0.9,0.46-0.9,1.09
	c0,2.93,0,5.86,0,8.79c0,5.03,1.35,10.29,4.9,14.02c1.57,1.65,3.57,2.86,5.8,3.27c0.65,2.41,1.82,4.8,4.04,6.59
	c3.19,2.59,8.71,3.27,12.61,1.33c3.73-1.85,5.54-5.3,6.58-8.49c0.47-1.46,0.8-2.95,1.02-4.45c0.12-0.78,0.23-1.58,0.24-2.37
	c0-0.04,0-0.07,0-0.11c0.01-0.3-0.17-0.52-0.42-0.65l0.47-9.19c2.15-0.18,3.9-1.93,4.01-4.14C73.98,4.46,72.12,2.4,69.7,2.28z
	 M72.49,6.81c-0.07,1.46-1.18,2.62-2.57,2.83l0.06-1.13L68.8,8.45l-0.06,1.13c-1.37-0.34-2.35-1.61-2.27-3.07
	c0.08-1.66,1.5-2.94,3.16-2.86C71.29,3.73,72.57,5.15,72.49,6.81z"/>
<text transform="matrix(1 0 0 1 72.4932 21.2998)" class="st0 st2 st3">MyDoc</text>
</svg>
