<?xml version="1.0" encoding="utf-8"?>
<!-- Generator: Adobe Illustrator 23.0.5, SVG Export Plug-In . SVG Version: 6.00 Build 0)  -->
<svg version="1.1" id="Calque_1" xmlns="http://www.w3.org/2000/svg" xmlns:xlink="http://www.w3.org/1999/xlink" x="0px" y="0px"
	 viewBox="0 0 28 28" style="enable-background:new 0 0 28 28;" xml:space="preserve">
<style type="text/css">
	.st0{fill:url(#SVGID_1_);}
	.st1{fill:url(#SVGID_2_);}
	.st2{fill:url(#SVGID_3_);}
</style>
<g>
	<linearGradient id="SVGID_1_" gradientUnits="userSpaceOnUse" x1="10.6651" y1="5.7365" x2="10.6651" y2="35.9745">
		<stop  offset="0" style="stop-color:#5CC6F2"/>
		<stop  offset="0.0757" style="stop-color:#55BEEE"/>
		<stop  offset="0.7111" style="stop-color:#1F84C7"/>
		<stop  offset="1" style="stop-color:#0E6EB6"/>
	</linearGradient>
	<path class="st0" d="M18.68,14.53l-0.95-3.03l-1.44,3c-0.15,0.31-0.46,0.49-0.8,0.46c-0.33-0.03-0.61-0.28-0.71-0.59l-0.42-1.24
		l-1.31,3.74c-0.11,0.33-0.42,0.54-0.77,0.54h-0.01c-0.35,0-0.65-0.22-0.76-0.55l-1.78-5.27l-1.28,3.12c-0.13,0.3-0.42,0.5-0.75,0.5
		h-2.1H0.23l5.7,0.8c0.34,0.05,0.66,0.2,0.9,0.45l5.9,5.9c0.46,0.46,1.2,0.46,1.66,0l6.59-6.6c0.25-0.25,0.07-0.67-0.28-0.67h-1.25
		C19.1,15.09,18.79,14.87,18.68,14.53z"/>
	<linearGradient id="SVGID_2_" gradientUnits="userSpaceOnUse" x1="10.6651" y1="5.7365" x2="10.6651" y2="35.9745">
		<stop  offset="0" style="stop-color:#5CC6F2"/>
		<stop  offset="0.0757" style="stop-color:#55BEEE"/>
		<stop  offset="0.7111" style="stop-color:#1F84C7"/>
		<stop  offset="1" style="stop-color:#0E6EB6"/>
	</linearGradient>
	<path class="st1" d="M18.68,14.53l-0.95-3.03l-1.44,3c-0.15,0.31-0.46,0.49-0.8,0.46c-0.33-0.03-0.61-0.28-0.71-0.59l-0.42-1.24
		l-1.31,3.74c-0.11,0.33-0.42,0.54-0.77,0.54h-0.01c-0.35,0-0.65-0.22-0.76-0.55l-1.78-5.27l-1.28,3.12c-0.13,0.3-0.42,0.5-0.75,0.5
		h-2.1H0.23l5.7,0.8c0.34,0.05,0.66,0.2,0.9,0.45l5.9,5.9c0.46,0.46,1.2,0.46,1.66,0l6.59-6.6c0.25-0.25,0.07-0.67-0.28-0.67h-1.25
		C19.1,15.09,18.79,14.87,18.68,14.53z"/>
	<linearGradient id="SVGID_3_" gradientUnits="userSpaceOnUse" x1="15.8646" y1="6.031" x2="15.8646" y2="37.5818">
		<stop  offset="0" style="stop-color:#5CC6F2"/>
		<stop  offset="0.0757" style="stop-color:#55BEEE"/>
		<stop  offset="0.7111" style="stop-color:#1F84C7"/>
		<stop  offset="1" style="stop-color:#0E6EB6"/>
	</linearGradient>
	<path class="st2" d="M22.91,13.29c0.14-0.59,0.17-1.22,0.07-1.87c-0.35-2.24-2.2-4.01-4.46-4.23c-2.15-0.21-4.05,0.94-4.96,2.69
		c-0.84-1.61-2.51-2.71-4.45-2.71c-2.66,0-4.9,2.14-5.02,4.79c-0.04,0.82,0.13,1.6,0.45,2.3c0.06,0.14,0.2,0.22,0.35,0.22h2.49
		l1.64-3.98C9.15,10.18,9.45,9.99,9.8,10c0.34,0.01,0.63,0.23,0.74,0.55l1.74,5.17l1.31-3.74c0.11-0.33,0.42-0.54,0.77-0.54l0,0
		c0.36,0.02,0.66,0.25,0.78,0.59l0.49,1.45l1.44-3.01c0.12-0.26,0.37-0.45,0.65-0.48c0.4-0.04,0.75,0.2,0.86,0.56l1.2,3.82h2.74h5.1
		l-4.42-0.63C23.01,13.71,22.87,13.5,22.91,13.29z"/>
</g>
</svg>
