<?xml version="1.0" standalone="no"?>
<!DOCTYPE svg PUBLIC "-//W3C//DTD SVG 20010904//EN"
 "http://www.w3.org/TR/2001/REC-SVG-20010904/DTD/svg10.dtd">
<svg version="1.0" xmlns="http://www.w3.org/2000/svg"
 width="56.000000pt" height="56.000000pt" viewBox="0 0 56.000000 56.000000"
 preserveAspectRatio="xMidYMid meet">

<g transform="translate(0.000000,56.000000) scale(0.100000,-0.100000)"
fill="#000000" stroke="none">
<path d="M182 321 c-10 -27 -16 -31 -49 -32 -21 -1 -29 -4 -17 -6 11 -2 49
-33 84 -68 36 -36 69 -65 75 -65 6 0 42 32 80 70 59 59 66 70 47 70 -16 0 -27
9 -37 32 l-13 33 -13 -28 c-13 -28 -33 -35 -45 -15 -5 7 -12 -1 -19 -23 -16
-46 -36 -43 -55 8 -21 56 -26 59 -38 24z"/>
</g>
</svg>
